<svg width="50" height="49" viewBox="0 0 50 49" fill="none" xmlns="http://www.w3.org/2000/svg">
<path d="M36.4325 10.6235C35.9926 10.6175 35.5609 10.7421 35.1918 10.9815C34.8228 11.2209 34.533 11.5643 34.3591 11.9684C34.1852 12.3724 34.1351 12.819 34.215 13.2516C34.2949 13.6841 34.5013 14.0833 34.808 14.3986C35.1148 14.7139 35.5082 14.9311 35.9384 15.0228C36.3686 15.1146 36.8164 15.0767 37.225 14.9139C37.6337 14.7512 37.985 14.4709 38.2344 14.1086C38.4838 13.7462 38.6201 13.318 38.6262 12.8782V12.8172C38.6209 12.2371 38.3881 11.6822 37.9778 11.2719C37.5676 10.8616 37.0126 10.6288 36.4325 10.6235Z" stroke="#FCFCFC" stroke-width="1.875" stroke-linecap="round" stroke-linejoin="round"/>
<path d="M41.6843 5.58561H8.06714C7.53727 5.59886 7.03356 5.8187 6.66354 6.19821C6.29353 6.57772 6.0865 7.08682 6.08667 7.61686V41.2341C6.08667 41.7728 6.30068 42.2894 6.68161 42.6704C7.06254 43.0513 7.5792 43.2653 8.11792 43.2653H41.7351C42.2738 43.2653 42.7905 43.0513 43.1714 42.6704C43.5524 42.2894 43.7664 41.7728 43.7664 41.2341V7.56608C43.7598 7.29931 43.7007 7.03645 43.5925 6.79252C43.4843 6.54859 43.329 6.32837 43.1357 6.14445C42.9423 5.96053 42.7146 5.81651 42.4656 5.72063C42.2166 5.62474 41.9511 5.57886 41.6843 5.58561V5.58561Z" stroke="#FCFCFC" stroke-width="1.875" stroke-linecap="round" stroke-linejoin="round"/>
<path d="M24.8742 15.9653C23.211 15.9653 21.5851 16.4585 20.2022 17.3826C18.8193 18.3066 17.7415 19.62 17.105 21.1566C16.4685 22.6932 16.302 24.384 16.6264 26.0153C16.9509 27.6466 17.7518 29.145 18.9279 30.321C20.104 31.4971 21.6024 32.298 23.2336 32.6225C24.8649 32.947 26.5557 32.7804 28.0924 32.144C29.629 31.5075 30.9423 30.4296 31.8664 29.0467C32.7904 27.6638 33.2836 26.0379 33.2836 24.3747V24.3747C33.2836 22.1444 32.3976 20.0054 30.8205 18.4284C29.2435 16.8513 27.1045 15.9653 24.8742 15.9653V15.9653Z" stroke="#FCFCFC" stroke-width="1.875" stroke-linecap="round" stroke-linejoin="round"/>
</svg>
