<svg width="50" height="49" viewBox="0 0 50 49" fill="none" xmlns="http://www.w3.org/2000/svg">
<path d="M25.1252 43.1641V18.8602C25.1252 18.1831 25.2588 17.5127 25.5182 16.8873C25.7776 16.2619 26.1578 15.6938 26.637 15.2155C27.1162 14.7372 27.6851 14.3582 28.311 14.1C28.9369 13.8418 29.6076 13.7096 30.2846 13.7109C32.8135 13.7109 34.3979 14.4625 35.4846 15.8641M20.7581 23.6539H31.0667" stroke="#FCFCFC" stroke-width="1.875" stroke-linecap="round" stroke-linejoin="round"/>
<path d="M8.34766 5.58618C7.80894 5.58618 7.29228 5.80019 6.91135 6.18112C6.53041 6.56205 6.31641 7.07871 6.31641 7.61743V7.61743V41.1331C6.31641 41.6718 6.53041 42.1884 6.91135 42.5694C7.29228 42.9503 7.80894 43.1643 8.34766 43.1643H41.9039C42.4426 43.1643 42.9593 42.9503 43.3402 42.5694C43.7211 42.1884 43.9352 41.6718 43.9352 41.1331V7.61743C43.9352 7.07871 43.7211 6.56205 43.3402 6.18112C42.9593 5.80019 42.4426 5.58618 41.9039 5.58618H8.34766Z" stroke="#FCFCFC" stroke-width="1.875" stroke-linecap="round" stroke-linejoin="round"/>
</svg>
