<svg width="5" height="4" viewBox="0 0 5 4" fill="none" xmlns="http://www.w3.org/2000/svg">
<path d="M2.60677 3.76784C1.67521 3.76784 0.919434 3.01206 0.919434 2.07951C0.919434 1.14696 1.67521 0.39118 2.60677 0.39118C3.53932 0.39118 4.29609 1.14696 4.29609 2.07951C4.29609 3.01206 3.53932 3.76784 2.60677 3.76784ZM1.129 2.0815C1.129 2.89686 1.78644 3.55825 2.60577 3.55825C2.86697 3.55825 3.11327 3.48976 3.32679 3.37058C3.35658 3.37555 3.3864 3.37951 3.41818 3.37951C3.70916 3.37951 3.94551 3.14216 3.94551 2.85118C3.94551 2.81046 3.94056 2.77072 3.93261 2.73397C4.02895 2.53733 4.08357 2.31488 4.08357 2.0815C4.08357 1.26216 3.42213 0.602706 2.60577 0.602706C1.78644 0.602706 1.129 1.26216 1.129 2.0815Z" fill="black"/>
</svg>
