<svg width="207" height="425" viewBox="0 0 207 425" fill="none" xmlns="http://www.w3.org/2000/svg">
<path d="M174.151 424.664H33.3878C15.3793 424.664 0.78125 410.065 0.78125 392.057V32.5997C0.78125 14.5912 15.3793 -0.00684635 33.3878 -0.00684635H174.151C192.159 -0.00684635 206.757 14.5912 206.757 32.5997V392.057C206.757 410.065 192.159 424.664 174.151 424.664ZM33.649 0.986288C16.0447 0.986288 1.77438 15.2567 1.77438 32.861V391.795C1.77438 409.4 16.0447 423.67 33.649 423.67H173.89C191.493 423.67 205.764 409.4 205.764 391.795V32.861C205.764 15.2567 191.493 0.986288 173.89 0.986288H33.649Z" fill="#A597A4"/>
</svg>
