<svg width="209" height="427" viewBox="0 0 209 427" fill="none" xmlns="http://www.w3.org/2000/svg">
<path d="M175.412 426.657H34.1266C15.7139 426.657 0.788086 411.731 0.788086 393.318V171.754V139.178V130.771V98.1952V84.1383V67.4169V33.3385C0.788086 14.9258 15.7139 -1.07355e-05 34.1266 -1.07355e-05H175.412C193.825 -1.07355e-05 208.75 14.9258 208.75 33.3385V393.318C208.75 411.731 193.825 426.657 175.412 426.657ZM34.3878 0.993124C16.3793 0.993124 1.78122 15.5912 1.78122 33.5997V393.057C1.78122 411.065 16.3793 425.664 34.3878 425.664H175.151C193.159 425.664 207.757 411.065 207.757 393.057V33.5997C207.757 15.5912 193.159 0.993124 175.151 0.993124H34.3878ZM174.89 424.67H34.649C17.0447 424.67 2.77435 410.4 2.77435 392.795V33.8609C2.77435 16.2566 17.0447 1.98626 34.649 1.98626H174.89C192.493 1.98626 206.764 16.2566 206.764 33.8609V392.795C206.764 410.4 192.493 424.67 174.89 424.67ZM34.9638 3.25648C18.0339 3.25648 4.30975 16.9806 4.30975 33.9106V392.746C4.30975 409.676 18.0339 423.4 34.9638 423.4H174.575C191.505 423.4 205.229 409.676 205.229 392.746V33.9106C205.229 16.9806 191.505 3.25648 174.575 3.25648H34.9638Z" fill="#5E465D"/>
</svg>
