<svg width="188" height="407" viewBox="0 0 188 407" fill="none" xmlns="http://www.w3.org/2000/svg">
<path d="M163.811 406.544H23.8899C10.6951 406.544 0 395.848 0 382.654V23.8899C0 10.6961 10.6951 0 23.8889 0C29.1276 0 34.3893 0 39.9339 0H147.574H163.811C177.005 0 187.7 10.6961 187.7 23.8899V382.654C187.7 395.848 177.005 406.544 163.811 406.544ZM76.3383 6.25473C72.6001 6.25473 69.5701 9.28485 69.5701 13.023C69.5701 16.7612 72.6001 19.7912 76.3383 19.7912H109.559C113.297 19.7912 116.327 16.7612 116.327 13.023C116.327 9.28485 113.297 6.25473 109.559 6.25473H76.3383Z" fill="white"/>
</svg>
