<svg width="7" height="6" viewBox="0 0 7 6" fill="none" xmlns="http://www.w3.org/2000/svg">
<path d="M3.59692 5.83838C3.32182 5.83838 3.04573 5.79768 2.77858 5.71327C2.34855 5.5782 1.96519 5.34081 1.65534 5.03194C1.33853 4.71414 1.11109 4.32781 0.980994 3.91268C0.758532 3.20259 0.820098 2.40908 1.1955 1.73573C1.32064 1.51228 1.47459 1.30771 1.65434 1.12894C1.9642 0.818092 2.34756 0.581738 2.77758 0.445678C3.04474 0.362255 3.32083 0.321536 3.59592 0.321536C3.9177 0.321536 4.23848 0.377142 4.54139 0.485394C4.91978 0.621453 5.27035 0.837955 5.56035 1.12894C5.74011 1.30771 5.89502 1.51228 6.01916 1.73573C6.39457 2.40908 6.45616 3.20259 6.2327 3.91268C6.1026 4.32781 5.87716 4.71414 5.55935 5.03194C5.26936 5.32194 4.91878 5.53844 4.5404 5.6735C4.23848 5.78175 3.91869 5.83838 3.59692 5.83838ZM3.60684 1.39114C2.67528 1.39114 1.9195 2.14692 1.9195 3.07947C1.9195 4.01203 2.67528 4.7678 3.60684 4.7678C4.53939 4.7678 5.29616 4.01203 5.29616 3.07947C5.29616 2.14692 4.53939 1.39114 3.60684 1.39114Z" fill="black"/>
</svg>
