<svg width="7" height="7" viewBox="0 0 7 7" fill="none" xmlns="http://www.w3.org/2000/svg">
<path d="M3.60692 6.03404C1.9752 6.03404 0.652344 4.71218 0.652344 3.07947C0.652344 1.44775 1.9752 0.124893 3.60692 0.124893C5.23864 0.124893 6.56149 1.44775 6.56149 3.07947C6.56149 4.71218 5.23864 6.03404 3.60692 6.03404ZM3.59601 0.321532C3.32091 0.321532 3.04482 0.36225 2.77767 0.445674C2.34764 0.581733 1.96428 0.818087 1.65442 1.12894C1.47467 1.3077 1.32072 1.51227 1.19559 1.73573C0.820181 2.40908 0.758615 3.20258 0.981077 3.91267C1.11118 4.3278 1.33861 4.71413 1.65542 5.03194C1.96528 5.3408 2.34863 5.5782 2.77866 5.71326C3.04581 5.79768 3.3219 5.83837 3.597 5.83837C3.91878 5.83837 4.23857 5.78175 4.54048 5.6735C4.91886 5.53843 5.26944 5.32193 5.55944 5.03194C5.87724 4.71413 6.10268 4.3278 6.23278 3.91267C6.45624 3.20258 6.39465 2.40908 6.01925 1.73573C5.8951 1.51227 5.74019 1.3077 5.56043 1.12894C5.27043 0.83795 4.91986 0.621449 4.54147 0.485389C4.23857 0.377138 3.91778 0.321532 3.59601 0.321532Z" fill="url(#paint0_linear_115_1048)"/>
<defs>
<linearGradient id="paint0_linear_115_1048" x1="3.60692" y1="5.8523" x2="3.60692" y2="0.0312508" gradientUnits="userSpaceOnUse">
<stop stop-color="#666666"/>
<stop offset="1" stop-color="#010104"/>
</linearGradient>
</defs>
</svg>
