<svg width="202" height="421" viewBox="0 0 202 421" fill="none" xmlns="http://www.w3.org/2000/svg">
<path d="M170.575 420.4H30.9636C14.0337 420.4 0.30957 406.676 0.30957 389.746V30.9106C0.30957 13.9807 14.0337 0.256519 30.9636 0.256519H170.575C187.504 0.256519 201.229 13.9807 201.229 30.9106V389.746C201.229 406.676 187.504 420.4 170.575 420.4ZM30.8077 7.05648C17.6139 7.05648 6.91887 17.7526 6.91887 30.9464V389.71C6.91887 402.904 17.6139 413.6 30.8087 413.6H170.729C183.924 413.6 194.619 402.904 194.619 389.71V30.9464C194.619 17.7526 183.924 7.05648 170.729 7.05648H154.493H46.8528C41.3081 7.05648 36.0465 7.05648 30.8077 7.05648Z" fill="#1D1D1B"/>
</svg>
