<svg width="185" height="185" viewBox="0 0 185 185" fill="none" xmlns="http://www.w3.org/2000/svg">
<g clip-path="url(#clip0_115_1140)">
<path d="M185 0H0V185H185V0Z" fill="white"/>
<path d="M16.4678 11.5625H11.5625V16.4678H16.4678V11.5625Z" fill="black"/>
<path d="M21.3731 11.5625H16.4678V16.4678H21.3731V11.5625Z" fill="black"/>
<path d="M26.2784 11.5625H21.3731V16.4678H26.2784V11.5625Z" fill="black"/>
<path d="M31.1837 11.5625H26.2784V16.4678H31.1837V11.5625Z" fill="black"/>
<path d="M36.089 11.5625H31.1837V16.4678H36.089V11.5625Z" fill="black"/>
<path d="M40.9943 11.5625H36.089V16.4678H40.9943V11.5625Z" fill="black"/>
<path d="M45.8996 11.5625H40.9943V16.4678H45.8996V11.5625Z" fill="black"/>
<path d="M55.7102 11.5625H50.8049V16.4678H55.7102V11.5625Z" fill="black"/>
<path d="M75.3314 11.5625H70.4261V16.4678H75.3314V11.5625Z" fill="black"/>
<path d="M90.0474 11.5625H85.142V16.4678H90.0474V11.5625Z" fill="black"/>
<path d="M94.9527 11.5625H90.0474V16.4678H94.9527V11.5625Z" fill="black"/>
<path d="M119.479 11.5625H114.574V16.4678H119.479V11.5625Z" fill="black"/>
<path d="M134.195 11.5625H129.29V16.4678H134.195V11.5625Z" fill="black"/>
<path d="M144.006 11.5625H139.1V16.4678H144.006V11.5625Z" fill="black"/>
<path d="M148.911 11.5625H144.006V16.4678H148.911V11.5625Z" fill="black"/>
<path d="M153.816 11.5625H148.911V16.4678H153.816V11.5625Z" fill="black"/>
<path d="M158.722 11.5625H153.816V16.4678H158.722V11.5625Z" fill="black"/>
<path d="M163.627 11.5625H158.722V16.4678H163.627V11.5625Z" fill="black"/>
<path d="M168.532 11.5625H163.627V16.4678H168.532V11.5625Z" fill="black"/>
<path d="M173.437 11.5625H168.532V16.4678H173.437V11.5625Z" fill="black"/>
<path d="M16.4678 16.4678H11.5625V21.3731H16.4678V16.4678Z" fill="black"/>
<path d="M45.8996 16.4678H40.9943V21.3731H45.8996V16.4678Z" fill="black"/>
<path d="M60.6155 16.4678H55.7102V21.3731H60.6155V16.4678Z" fill="black"/>
<path d="M75.3314 16.4678H70.4261V21.3731H75.3314V16.4678Z" fill="black"/>
<path d="M80.2367 16.4678H75.3314V21.3731H80.2367V16.4678Z" fill="black"/>
<path d="M85.142 16.4678H80.2367V21.3731H85.142V16.4678Z" fill="black"/>
<path d="M94.9527 16.4678H90.0474V21.3731H94.9527V16.4678Z" fill="black"/>
<path d="M114.574 16.4678H109.669V21.3731H114.574V16.4678Z" fill="black"/>
<path d="M134.195 16.4678H129.29V21.3731H134.195V16.4678Z" fill="black"/>
<path d="M144.006 16.4678H139.1V21.3731H144.006V16.4678Z" fill="black"/>
<path d="M173.437 16.4678H168.532V21.3731H173.437V16.4678Z" fill="black"/>
<path d="M16.4678 21.3731H11.5625V26.2784H16.4678V21.3731Z" fill="black"/>
<path d="M26.2784 21.3731H21.3731V26.2784H26.2784V21.3731Z" fill="black"/>
<path d="M31.1837 21.3731H26.2784V26.2784H31.1837V21.3731Z" fill="black"/>
<path d="M36.089 21.3731H31.1837V26.2784H36.089V21.3731Z" fill="black"/>
<path d="M45.8996 21.3731H40.9943V26.2784H45.8996V21.3731Z" fill="black"/>
<path d="M60.6155 21.3731H55.7102V26.2784H60.6155V21.3731Z" fill="black"/>
<path d="M75.3314 21.3731H70.4261V26.2784H75.3314V21.3731Z" fill="black"/>
<path d="M85.142 21.3731H80.2367V26.2784H85.142V21.3731Z" fill="black"/>
<path d="M94.9527 21.3731H90.0474V26.2784H94.9527V21.3731Z" fill="black"/>
<path d="M99.858 21.3731H94.9527V26.2784H99.858V21.3731Z" fill="black"/>
<path d="M104.763 21.3731H99.858V26.2784H104.763V21.3731Z" fill="black"/>
<path d="M134.195 21.3731H129.29V26.2784H134.195V21.3731Z" fill="black"/>
<path d="M144.006 21.3731H139.1V26.2784H144.006V21.3731Z" fill="black"/>
<path d="M153.816 21.3731H148.911V26.2784H153.816V21.3731Z" fill="black"/>
<path d="M158.722 21.3731H153.816V26.2784H158.722V21.3731Z" fill="black"/>
<path d="M163.627 21.3731H158.722V26.2784H163.627V21.3731Z" fill="black"/>
<path d="M173.437 21.3731H168.532V26.2784H173.437V21.3731Z" fill="black"/>
<path d="M16.4678 26.2784H11.5625V31.1837H16.4678V26.2784Z" fill="black"/>
<path d="M26.2784 26.2784H21.3731V31.1837H26.2784V26.2784Z" fill="black"/>
<path d="M31.1837 26.2784H26.2784V31.1837H31.1837V26.2784Z" fill="black"/>
<path d="M36.089 26.2784H31.1837V31.1837H36.089V26.2784Z" fill="black"/>
<path d="M45.8996 26.2784H40.9943V31.1837H45.8996V26.2784Z" fill="black"/>
<path d="M60.6155 26.2784H55.7102V31.1837H60.6155V26.2784Z" fill="black"/>
<path d="M65.5208 26.2784H60.6155V31.1837H65.5208V26.2784Z" fill="black"/>
<path d="M70.4261 26.2784H65.5208V31.1837H70.4261V26.2784Z" fill="black"/>
<path d="M75.3314 26.2784H70.4261V31.1837H75.3314V26.2784Z" fill="black"/>
<path d="M85.142 26.2784H80.2367V31.1837H85.142V26.2784Z" fill="black"/>
<path d="M94.9527 26.2784H90.0474V31.1837H94.9527V26.2784Z" fill="black"/>
<path d="M99.858 26.2784H94.9527V31.1837H99.858V26.2784Z" fill="black"/>
<path d="M109.669 26.2784H104.763L104.763 31.1837H109.669V26.2784Z" fill="black"/>
<path d="M114.574 26.2784H109.669V31.1837H114.574V26.2784Z" fill="black"/>
<path d="M124.384 26.2784H119.479V31.1837H124.384V26.2784Z" fill="black"/>
<path d="M134.195 26.2784H129.29V31.1837H134.195V26.2784Z" fill="black"/>
<path d="M144.006 26.2784H139.1V31.1837H144.006V26.2784Z" fill="black"/>
<path d="M153.816 26.2784H148.911V31.1837H153.816V26.2784Z" fill="black"/>
<path d="M158.722 26.2784H153.816V31.1837H158.722V26.2784Z" fill="black"/>
<path d="M163.627 26.2784H158.722V31.1837H163.627V26.2784Z" fill="black"/>
<path d="M173.437 26.2784H168.532V31.1837H173.437V26.2784Z" fill="black"/>
<path d="M16.4678 31.1837H11.5625V36.089H16.4678V31.1837Z" fill="black"/>
<path d="M26.2784 31.1837H21.3731V36.089H26.2784V31.1837Z" fill="black"/>
<path d="M31.1837 31.1837H26.2784V36.089H31.1837V31.1837Z" fill="black"/>
<path d="M36.089 31.1837H31.1837V36.089H36.089V31.1837Z" fill="black"/>
<path d="M45.8996 31.1837H40.9943V36.089H45.8996V31.1837Z" fill="black"/>
<path d="M55.7102 31.1837H50.8049V36.089H55.7102V31.1837Z" fill="black"/>
<path d="M70.4261 31.1837H65.5208V36.089H70.4261V31.1837Z" fill="black"/>
<path d="M75.3314 31.1837H70.4261V36.089H75.3314V31.1837Z" fill="black"/>
<path d="M104.763 31.1837H99.858V36.089H104.763L104.763 31.1837Z" fill="black"/>
<path d="M114.574 31.1837H109.669V36.089H114.574V31.1837Z" fill="black"/>
<path d="M129.29 31.1837H124.384V36.089H129.29V31.1837Z" fill="black"/>
<path d="M144.006 31.1837H139.1V36.089H144.006V31.1837Z" fill="black"/>
<path d="M153.816 31.1837H148.911V36.089H153.816V31.1837Z" fill="black"/>
<path d="M158.722 31.1837H153.816V36.089H158.722V31.1837Z" fill="black"/>
<path d="M163.627 31.1837H158.722V36.089H163.627V31.1837Z" fill="black"/>
<path d="M173.437 31.1837H168.532V36.089H173.437V31.1837Z" fill="black"/>
<path d="M16.4678 36.089H11.5625V40.9943H16.4678V36.089Z" fill="black"/>
<path d="M45.8996 36.089H40.9943V40.9943H45.8996V36.089Z" fill="black"/>
<path d="M60.6155 36.089H55.7102V40.9943H60.6155V36.089Z" fill="black"/>
<path d="M75.3314 36.089H70.4261V40.9943H75.3314V36.089Z" fill="black"/>
<path d="M80.2367 36.089H75.3314V40.9943H80.2367V36.089Z" fill="black"/>
<path d="M85.142 36.089H80.2367V40.9943H85.142V36.089Z" fill="black"/>
<path d="M94.9527 36.089H90.0474V40.9943H94.9527V36.089Z" fill="black"/>
<path d="M99.858 36.089H94.9527V40.9943H99.858V36.089Z" fill="black"/>
<path d="M114.574 36.089H109.669V40.9943H114.574V36.089Z" fill="black"/>
<path d="M119.479 36.089H114.574V40.9943H119.479V36.089Z" fill="black"/>
<path d="M129.29 36.089H124.384V40.9943H129.29V36.089Z" fill="black"/>
<path d="M144.006 36.089H139.1V40.9943H144.006V36.089Z" fill="black"/>
<path d="M173.437 36.089H168.532V40.9943H173.437V36.089Z" fill="black"/>
<path d="M16.4678 40.9943H11.5625V45.8996H16.4678V40.9943Z" fill="black"/>
<path d="M21.3731 40.9943H16.4678V45.8996H21.3731V40.9943Z" fill="black"/>
<path d="M26.2784 40.9943H21.3731V45.8996H26.2784V40.9943Z" fill="black"/>
<path d="M31.1837 40.9943H26.2784V45.8996H31.1837V40.9943Z" fill="black"/>
<path d="M36.089 40.9943H31.1837V45.8996H36.089V40.9943Z" fill="black"/>
<path d="M40.9943 40.9943H36.089V45.8996H40.9943V40.9943Z" fill="black"/>
<path d="M45.8996 40.9943H40.9943V45.8996H45.8996V40.9943Z" fill="black"/>
<path d="M55.7102 40.9943H50.8049V45.8996H55.7102V40.9943Z" fill="black"/>
<path d="M65.5208 40.9943H60.6155V45.8996H65.5208V40.9943Z" fill="black"/>
<path d="M75.3314 40.9943H70.4261V45.8996H75.3314V40.9943Z" fill="black"/>
<path d="M85.142 40.9943H80.2367V45.8996H85.142V40.9943Z" fill="black"/>
<path d="M94.9527 40.9943H90.0474V45.8996H94.9527V40.9943Z" fill="black"/>
<path d="M104.763 40.9943H99.858V45.8996H104.763V40.9943Z" fill="black"/>
<path d="M114.574 40.9943H109.669V45.8996H114.574V40.9943Z" fill="black"/>
<path d="M124.384 40.9943H119.479V45.8996H124.384V40.9943Z" fill="black"/>
<path d="M134.195 40.9943H129.29V45.8996H134.195V40.9943Z" fill="black"/>
<path d="M144.006 40.9943H139.1V45.8996H144.006V40.9943Z" fill="black"/>
<path d="M148.911 40.9943H144.006V45.8996H148.911V40.9943Z" fill="black"/>
<path d="M153.816 40.9943H148.911V45.8996H153.816V40.9943Z" fill="black"/>
<path d="M158.722 40.9943H153.816V45.8996H158.722V40.9943Z" fill="black"/>
<path d="M163.627 40.9943H158.722V45.8996H163.627V40.9943Z" fill="black"/>
<path d="M168.532 40.9943H163.627V45.8996H168.532V40.9943Z" fill="black"/>
<path d="M173.437 40.9943H168.532V45.8996H173.437V40.9943Z" fill="black"/>
<path d="M55.7102 45.8996H50.8049V50.8049H55.7102V45.8996Z" fill="black"/>
<path d="M60.6155 45.8996H55.7102V50.8049H60.6155V45.8996Z" fill="black"/>
<path d="M65.5208 45.8996H60.6155V50.8049H65.5208V45.8996Z" fill="black"/>
<path d="M70.4261 45.8996H65.5208V50.8049H70.4261V45.8996Z" fill="black"/>
<path d="M90.0474 45.8996H85.142V50.8049H90.0474V45.8996Z" fill="black"/>
<path d="M94.9527 45.8996H90.0474V50.8049H94.9527V45.8996Z" fill="black"/>
<path d="M99.858 45.8996H94.9527V50.8049H99.858V45.8996Z" fill="black"/>
<path d="M109.669 45.8996H104.763L104.763 50.8049H109.669V45.8996Z" fill="black"/>
<path d="M114.574 45.8996H109.669V50.8049H114.574V45.8996Z" fill="black"/>
<path d="M119.479 45.8996H114.574V50.8049H119.479V45.8996Z" fill="black"/>
<path d="M129.29 45.8996H124.384V50.8049H129.29V45.8996Z" fill="black"/>
<path d="M16.4678 50.8049H11.5625V55.7102H16.4678V50.8049Z" fill="black"/>
<path d="M31.1837 50.8049H26.2784V55.7102H31.1837V50.8049Z" fill="black"/>
<path d="M36.089 50.8049H31.1837V55.7102H36.089V50.8049Z" fill="black"/>
<path d="M40.9943 50.8049H36.089V55.7102H40.9943V50.8049Z" fill="black"/>
<path d="M45.8996 50.8049H40.9943V55.7102H45.8996V50.8049Z" fill="black"/>
<path d="M50.8049 50.8049H45.8996V55.7102H50.8049V50.8049Z" fill="black"/>
<path d="M55.7102 50.8049H50.8049V55.7102H55.7102V50.8049Z" fill="black"/>
<path d="M60.6155 50.8049H55.7102V55.7102H60.6155V50.8049Z" fill="black"/>
<path d="M70.4261 50.8049H65.5208V55.7102H70.4261V50.8049Z" fill="black"/>
<path d="M75.3314 50.8049H70.4261V55.7102H75.3314V50.8049Z" fill="black"/>
<path d="M85.142 50.8049H80.2367V55.7102H85.142V50.8049Z" fill="black"/>
<path d="M94.9527 50.8049H90.0474V55.7102H94.9527V50.8049Z" fill="black"/>
<path d="M104.763 50.8049H99.858V55.7102H104.763L104.763 50.8049Z" fill="black"/>
<path d="M114.574 50.8049H109.669V55.7102H114.574V50.8049Z" fill="black"/>
<path d="M119.479 50.8049H114.574V55.7102H119.479V50.8049Z" fill="black"/>
<path d="M124.384 50.8049H119.479V55.7102H124.384V50.8049Z" fill="black"/>
<path d="M129.29 50.8049H124.384V55.7102H129.29V50.8049Z" fill="black"/>
<path d="M134.195 50.8049H129.29V55.7102H134.195V50.8049Z" fill="black"/>
<path d="M139.1 50.8049H134.195V55.7102H139.1V50.8049Z" fill="black"/>
<path d="M144.006 50.8049H139.1V55.7102H144.006V50.8049Z" fill="black"/>
<path d="M153.816 50.8049H148.911V55.7102H153.816V50.8049Z" fill="black"/>
<path d="M173.437 50.8049H168.532V55.7102H173.437V50.8049Z" fill="black"/>
<path d="M16.4678 55.7102H11.5625V60.6155H16.4678V55.7102Z" fill="black"/>
<path d="M31.1837 55.7102H26.2784V60.6155H31.1837V55.7102Z" fill="black"/>
<path d="M36.089 55.7102H31.1837V60.6155H36.089V55.7102Z" fill="black"/>
<path d="M40.9943 55.7102H36.089V60.6155H40.9943V55.7102Z" fill="black"/>
<path d="M55.7102 55.7102H50.8049V60.6155H55.7102V55.7102Z" fill="black"/>
<path d="M60.6155 55.7102H55.7102V60.6155H60.6155V55.7102Z" fill="black"/>
<path d="M65.5208 55.7102H60.6155V60.6155H65.5208V55.7102Z" fill="black"/>
<path d="M80.2367 55.7102H75.3314V60.6155H80.2367V55.7102Z" fill="black"/>
<path d="M99.858 55.7102H94.9527V60.6155H99.858V55.7102Z" fill="black"/>
<path d="M119.479 55.7102H114.574V60.6155H119.479V55.7102Z" fill="black"/>
<path d="M124.384 55.7102H119.479V60.6155H124.384V55.7102Z" fill="black"/>
<path d="M134.195 55.7102H129.29V60.6155H134.195V55.7102Z" fill="black"/>
<path d="M148.911 55.7102H144.006V60.6155H148.911V55.7102Z" fill="black"/>
<path d="M153.816 55.7102H148.911V60.6155H153.816V55.7102Z" fill="black"/>
<path d="M163.627 55.7102H158.722V60.6155H163.627V55.7102Z" fill="black"/>
<path d="M168.532 55.7102H163.627V60.6155H168.532V55.7102Z" fill="black"/>
<path d="M173.437 55.7102H168.532V60.6155H173.437V55.7102Z" fill="black"/>
<path d="M16.4678 60.6155H11.5625V65.5208H16.4678V60.6155Z" fill="black"/>
<path d="M26.2784 60.6155H21.3731V65.5208H26.2784V60.6155Z" fill="black"/>
<path d="M45.8996 60.6155H40.9943V65.5208H45.8996V60.6155Z" fill="black"/>
<path d="M50.8049 60.6155H45.8996V65.5208H50.8049V60.6155Z" fill="black"/>
<path d="M65.5208 60.6155H60.6155V65.5208H65.5208V60.6155Z" fill="black"/>
<path d="M70.4261 60.6155H65.5208V65.5208H70.4261V60.6155Z" fill="black"/>
<path d="M80.2367 60.6155H75.3314V65.5208H80.2367V60.6155Z" fill="black"/>
<path d="M94.9527 60.6155H90.0474V65.5208H94.9527V60.6155Z" fill="black"/>
<path d="M109.669 60.6155H104.763V65.5208H109.669V60.6155Z" fill="black"/>
<path d="M114.574 60.6155H109.669V65.5208H114.574V60.6155Z" fill="black"/>
<path d="M119.479 60.6155H114.574V65.5208H119.479V60.6155Z" fill="black"/>
<path d="M129.29 60.6155H124.384V65.5208H129.29V60.6155Z" fill="black"/>
<path d="M144.006 60.6155H139.1V65.5208H144.006V60.6155Z" fill="black"/>
<path d="M153.816 60.6155H148.911V65.5208H153.816V60.6155Z" fill="black"/>
<path d="M168.532 60.6155H163.627V65.5208H168.532V60.6155Z" fill="black"/>
<path d="M16.4678 65.5208H11.5625V70.4261H16.4678V65.5208Z" fill="black"/>
<path d="M21.3731 65.5208H16.4678V70.4261H21.3731V65.5208Z" fill="black"/>
<path d="M26.2784 65.5208H21.3731V70.4261H26.2784V65.5208Z" fill="black"/>
<path d="M36.089 65.5208H31.1837V70.4261H36.089V65.5208Z" fill="black"/>
<path d="M40.9943 65.5208H36.089V70.4261H40.9943V65.5208Z" fill="black"/>
<path d="M50.8049 65.5208H45.8996V70.4261H50.8049V65.5208Z" fill="black"/>
<path d="M60.6155 65.5208H55.7102V70.4261H60.6155V65.5208Z" fill="black"/>
<path d="M65.5208 65.5208H60.6155V70.4261H65.5208V65.5208Z" fill="black"/>
<path d="M85.142 65.5208H80.2367V70.4261H85.142V65.5208Z" fill="black"/>
<path d="M104.763 65.5208H99.858V70.4261H104.763L104.763 65.5208Z" fill="black"/>
<path d="M109.669 65.5208H104.763L104.763 70.4261H109.669V65.5208Z" fill="black"/>
<path d="M119.479 65.5208H114.574V70.4261H119.479V65.5208Z" fill="black"/>
<path d="M129.29 65.5208H124.384V70.4261H129.29V65.5208Z" fill="black"/>
<path d="M134.195 65.5208H129.29V70.4261H134.195V65.5208Z" fill="black"/>
<path d="M144.006 65.5208H139.1V70.4261H144.006V65.5208Z" fill="black"/>
<path d="M148.911 65.5208H144.006V70.4261H148.911V65.5208Z" fill="black"/>
<path d="M153.816 65.5208H148.911V70.4261H153.816V65.5208Z" fill="black"/>
<path d="M168.532 65.5208H163.627V70.4261H168.532V65.5208Z" fill="black"/>
<path d="M16.4678 70.4261H11.5625V75.3314H16.4678V70.4261Z" fill="black"/>
<path d="M26.2784 70.4261H21.3731V75.3314H26.2784V70.4261Z" fill="black"/>
<path d="M40.9943 70.4261H36.089V75.3314H40.9943V70.4261Z" fill="black"/>
<path d="M45.8996 70.4261H40.9943V75.3314H45.8996V70.4261Z" fill="black"/>
<path d="M50.8049 70.4261H45.8996V75.3314H50.8049V70.4261Z" fill="black"/>
<path d="M90.0474 70.4261H85.142V75.3314H90.0474V70.4261Z" fill="black"/>
<path d="M99.858 70.4261H94.9527V75.3314H99.858V70.4261Z" fill="black"/>
<path d="M114.574 70.4261H109.669V75.3314H114.574V70.4261Z" fill="black"/>
<path d="M129.29 70.4261H124.384V75.3314H129.29V70.4261Z" fill="black"/>
<path d="M134.195 70.4261H129.29V75.3314H134.195V70.4261Z" fill="black"/>
<path d="M148.911 70.4261H144.006V75.3314H148.911V70.4261Z" fill="black"/>
<path d="M153.816 70.4261H148.911V75.3314H153.816V70.4261Z" fill="black"/>
<path d="M163.627 70.4261H158.722V75.3314H163.627V70.4261Z" fill="black"/>
<path d="M173.437 70.4261H168.532V75.3314H173.437V70.4261Z" fill="black"/>
<path d="M26.2784 75.3314H21.3731V80.2367H26.2784V75.3314Z" fill="black"/>
<path d="M60.6155 75.3314H55.7102V80.2367H60.6155V75.3314Z" fill="black"/>
<path d="M75.3314 75.3314H70.4261V80.2367H75.3314V75.3314Z" fill="black"/>
<path d="M80.2367 75.3314H75.3314V80.2367H80.2367V75.3314Z" fill="black"/>
<path d="M85.142 75.3314H80.2367V80.2367H85.142V75.3314Z" fill="black"/>
<path d="M90.0474 75.3314H85.142V80.2367H90.0474V75.3314Z" fill="black"/>
<path d="M94.9527 75.3314H90.0474V80.2367H94.9527V75.3314Z" fill="black"/>
<path d="M114.574 75.3314H109.669V80.2367H114.574V75.3314Z" fill="black"/>
<path d="M119.479 75.3314H114.574V80.2367H119.479V75.3314Z" fill="black"/>
<path d="M124.384 75.3314H119.479V80.2367H124.384V75.3314Z" fill="black"/>
<path d="M129.29 75.3314H124.384V80.2367H129.29V75.3314Z" fill="black"/>
<path d="M139.1 75.3314H134.195V80.2367H139.1V75.3314Z" fill="black"/>
<path d="M148.911 75.3314H144.006V80.2367H148.911V75.3314Z" fill="black"/>
<path d="M173.437 75.3314H168.532V80.2367H173.437V75.3314Z" fill="black"/>
<path d="M16.4678 80.2367H11.5625V85.142H16.4678V80.2367Z" fill="black"/>
<path d="M31.1837 80.2367H26.2784V85.142H31.1837V80.2367Z" fill="black"/>
<path d="M36.089 80.2367H31.1837V85.142H36.089V80.2367Z" fill="black"/>
<path d="M40.9943 80.2367H36.089V85.142H40.9943V80.2367Z" fill="black"/>
<path d="M45.8996 80.2367H40.9943V85.142H45.8996V80.2367Z" fill="black"/>
<path d="M50.8049 80.2367H45.8996V85.142H50.8049V80.2367Z" fill="black"/>
<path d="M70.4261 80.2367H65.5208V85.142H70.4261V80.2367Z" fill="black"/>
<path d="M75.3314 80.2367H70.4261V85.142H75.3314V80.2367Z" fill="black"/>
<path d="M85.142 80.2367H80.2367V85.142H85.142V80.2367Z" fill="black"/>
<path d="M90.0474 80.2367H85.142V85.142H90.0474V80.2367Z" fill="black"/>
<path d="M94.9527 80.2367H90.0474V85.142H94.9527V80.2367Z" fill="black"/>
<path d="M114.574 80.2367H109.669V85.142H114.574V80.2367Z" fill="black"/>
<path d="M119.479 80.2367H114.574V85.142H119.479V80.2367Z" fill="black"/>
<path d="M124.384 80.2367H119.479V85.142H124.384V80.2367Z" fill="black"/>
<path d="M129.29 80.2367H124.384V85.142H129.29V80.2367Z" fill="black"/>
<path d="M134.195 80.2367H129.29V85.142H134.195V80.2367Z" fill="black"/>
<path d="M148.911 80.2367H144.006V85.142H148.911V80.2367Z" fill="black"/>
<path d="M153.816 80.2367H148.911V85.142H153.816V80.2367Z" fill="black"/>
<path d="M158.722 80.2367H153.816V85.142H158.722V80.2367Z" fill="black"/>
<path d="M163.627 80.2367H158.722V85.142H163.627V80.2367Z" fill="black"/>
<path d="M173.437 80.2367H168.532V85.142H173.437V80.2367Z" fill="black"/>
<path d="M16.4678 85.142H11.5625V90.0474H16.4678V85.142Z" fill="black"/>
<path d="M31.1837 85.142H26.2784V90.0474H31.1837V85.142Z" fill="black"/>
<path d="M50.8049 85.142H45.8996V90.0474H50.8049V85.142Z" fill="black"/>
<path d="M65.5208 85.142H60.6155V90.0474H65.5208V85.142Z" fill="black"/>
<path d="M94.9527 85.142H90.0474V90.0474H94.9527V85.142Z" fill="black"/>
<path d="M99.858 85.142H94.9527V90.0474H99.858V85.142Z" fill="black"/>
<path d="M104.763 85.142H99.858V90.0474H104.763V85.142Z" fill="black"/>
<path d="M109.669 85.142H104.763V90.0474H109.669V85.142Z" fill="black"/>
<path d="M114.574 85.142H109.669V90.0474H114.574V85.142Z" fill="black"/>
<path d="M124.384 85.142H119.479V90.0474H124.384V85.142Z" fill="black"/>
<path d="M129.29 85.142H124.384V90.0474H129.29V85.142Z" fill="black"/>
<path d="M144.006 85.142H139.1V90.0474H144.006V85.142Z" fill="black"/>
<path d="M153.816 85.142H148.911V90.0474H153.816V85.142Z" fill="black"/>
<path d="M173.437 85.142H168.532V90.0474H173.437V85.142Z" fill="black"/>
<path d="M16.4678 90.0474H11.5625V94.9527H16.4678V90.0474Z" fill="black"/>
<path d="M21.3731 90.0474H16.4678V94.9527H21.3731V90.0474Z" fill="black"/>
<path d="M26.2784 90.0474H21.3731V94.9527H26.2784V90.0474Z" fill="black"/>
<path d="M40.9943 90.0474H36.089V94.9527H40.9943V90.0474Z" fill="black"/>
<path d="M45.8996 90.0474H40.9943V94.9527H45.8996V90.0474Z" fill="black"/>
<path d="M50.8049 90.0474H45.8996V94.9527H50.8049V90.0474Z" fill="black"/>
<path d="M55.7102 90.0474H50.8049V94.9527H55.7102V90.0474Z" fill="black"/>
<path d="M60.6155 90.0474H55.7102V94.9527H60.6155V90.0474Z" fill="black"/>
<path d="M70.4261 90.0474H65.5208V94.9527H70.4261V90.0474Z" fill="black"/>
<path d="M80.2367 90.0474H75.3314V94.9527H80.2367V90.0474Z" fill="black"/>
<path d="M85.142 90.0474H80.2367V94.9527H85.142V90.0474Z" fill="black"/>
<path d="M99.858 90.0474H94.9527V94.9527H99.858V90.0474Z" fill="black"/>
<path d="M109.669 90.0474H104.763L104.763 94.9527H109.669V90.0474Z" fill="black"/>
<path d="M114.574 90.0474H109.669V94.9527H114.574V90.0474Z" fill="black"/>
<path d="M129.29 90.0474H124.384V94.9527H129.29V90.0474Z" fill="black"/>
<path d="M139.1 90.0474H134.195V94.9527H139.1V90.0474Z" fill="black"/>
<path d="M158.722 90.0474H153.816V94.9527H158.722V90.0474Z" fill="black"/>
<path d="M163.627 90.0474H158.722V94.9527H163.627V90.0474Z" fill="black"/>
<path d="M16.4678 94.9527H11.5625V99.858H16.4678V94.9527Z" fill="black"/>
<path d="M21.3731 94.9527H16.4678V99.858H21.3731V94.9527Z" fill="black"/>
<path d="M31.1837 94.9527H26.2784V99.858H31.1837V94.9527Z" fill="black"/>
<path d="M36.089 94.9527H31.1837V99.858H36.089V94.9527Z" fill="black"/>
<path d="M40.9943 94.9527H36.089V99.858H40.9943V94.9527Z" fill="black"/>
<path d="M50.8049 94.9527H45.8996V99.858H50.8049V94.9527Z" fill="black"/>
<path d="M55.7102 94.9527H50.8049V99.858H55.7102V94.9527Z" fill="black"/>
<path d="M65.5208 94.9527H60.6155V99.858H65.5208V94.9527Z" fill="black"/>
<path d="M70.4261 94.9527H65.5208V99.858H70.4261V94.9527Z" fill="black"/>
<path d="M90.0474 94.9527H85.142V99.858H90.0474V94.9527Z" fill="black"/>
<path d="M94.9527 94.9527H90.0474V99.858H94.9527V94.9527Z" fill="black"/>
<path d="M99.858 94.9527H94.9527V99.858H99.858V94.9527Z" fill="black"/>
<path d="M119.479 94.9527H114.574V99.858H119.479V94.9527Z" fill="black"/>
<path d="M129.29 94.9527H124.384V99.858H129.29V94.9527Z" fill="black"/>
<path d="M134.195 94.9527H129.29V99.858H134.195V94.9527Z" fill="black"/>
<path d="M144.006 94.9527H139.1V99.858H144.006V94.9527Z" fill="black"/>
<path d="M148.911 94.9527H144.006V99.858H148.911V94.9527Z" fill="black"/>
<path d="M158.722 94.9527H153.816V99.858H158.722V94.9527Z" fill="black"/>
<path d="M163.627 94.9527H158.722V99.858H163.627V94.9527Z" fill="black"/>
<path d="M168.532 94.9527H163.627V99.858H168.532V94.9527Z" fill="black"/>
<path d="M173.437 94.9527H168.532V99.858H173.437V94.9527Z" fill="black"/>
<path d="M16.4678 99.858H11.5625V104.763H16.4678V99.858Z" fill="black"/>
<path d="M31.1837 99.858H26.2784V104.763H31.1837V99.858Z" fill="black"/>
<path d="M36.089 99.858H31.1837V104.763H36.089V99.858Z" fill="black"/>
<path d="M45.8996 99.858H40.9943V104.763H45.8996V99.858Z" fill="black"/>
<path d="M60.6155 99.858H55.7102V104.763H60.6155V99.858Z" fill="black"/>
<path d="M70.4261 99.858H65.5208V104.763H70.4261V99.858Z" fill="black"/>
<path d="M75.3314 99.858H70.4261V104.763H75.3314V99.858Z" fill="black"/>
<path d="M90.0474 99.858H85.142V104.763H90.0474V99.858Z" fill="black"/>
<path d="M99.858 99.858H94.9527V104.763H99.858V99.858Z" fill="black"/>
<path d="M104.763 99.858H99.858V104.763H104.763V99.858Z" fill="black"/>
<path d="M119.479 99.858H114.574V104.763H119.479V99.858Z" fill="black"/>
<path d="M124.384 99.858H119.479V104.763H124.384V99.858Z" fill="black"/>
<path d="M129.29 99.858H124.384V104.763H129.29V99.858Z" fill="black"/>
<path d="M139.1 99.858H134.195V104.763H139.1V99.858Z" fill="black"/>
<path d="M148.911 99.858H144.006V104.763H148.911V99.858Z" fill="black"/>
<path d="M153.816 99.858H148.911V104.763H153.816V99.858Z" fill="black"/>
<path d="M163.627 99.858H158.722V104.763H163.627V99.858Z" fill="black"/>
<path d="M168.532 99.858H163.627V104.763H168.532V99.858Z" fill="black"/>
<path d="M173.437 99.858H168.532V104.763H173.437V99.858Z" fill="black"/>
<path d="M21.3731 104.763L16.4678 104.763V109.669H21.3731V104.763Z" fill="black"/>
<path d="M36.089 104.763H31.1837V109.669H36.089V104.763Z" fill="black"/>
<path d="M40.9943 104.763H36.089V109.669H40.9943V104.763Z" fill="black"/>
<path d="M55.7102 104.763L50.8049 104.763V109.669H55.7102V104.763Z" fill="black"/>
<path d="M75.3314 104.763H70.4261V109.669H75.3314V104.763Z" fill="black"/>
<path d="M80.2367 104.763L75.3314 104.763V109.669H80.2367V104.763Z" fill="black"/>
<path d="M85.142 104.763L80.2367 104.763V109.669H85.142V104.763Z" fill="black"/>
<path d="M90.0474 104.763H85.142V109.669H90.0474V104.763Z" fill="black"/>
<path d="M114.574 104.763L109.669 104.763V109.669H114.574V104.763Z" fill="black"/>
<path d="M119.479 104.763H114.574V109.669H119.479V104.763Z" fill="black"/>
<path d="M134.195 104.763H129.29V109.669H134.195V104.763Z" fill="black"/>
<path d="M148.911 104.763H144.006V109.669H148.911V104.763Z" fill="black"/>
<path d="M153.816 104.763H148.911V109.669H153.816V104.763Z" fill="black"/>
<path d="M158.722 104.763H153.816V109.669H158.722V104.763Z" fill="black"/>
<path d="M163.627 104.763H158.722V109.669H163.627V104.763Z" fill="black"/>
<path d="M168.532 104.763H163.627V109.669H168.532V104.763Z" fill="black"/>
<path d="M16.4678 109.669H11.5625V114.574H16.4678V109.669Z" fill="black"/>
<path d="M21.3731 109.669H16.4678V114.574H21.3731V109.669Z" fill="black"/>
<path d="M31.1837 109.669H26.2784V114.574H31.1837V109.669Z" fill="black"/>
<path d="M36.089 109.669H31.1837V114.574H36.089V109.669Z" fill="black"/>
<path d="M45.8996 109.669H40.9943V114.574H45.8996V109.669Z" fill="black"/>
<path d="M75.3314 109.669H70.4261V114.574H75.3314V109.669Z" fill="black"/>
<path d="M90.0474 109.669H85.142V114.574H90.0474V109.669Z" fill="black"/>
<path d="M104.763 109.669H99.858V114.574H104.763V109.669Z" fill="black"/>
<path d="M119.479 109.669H114.574V114.574H119.479V109.669Z" fill="black"/>
<path d="M124.384 109.669H119.479V114.574H124.384V109.669Z" fill="black"/>
<path d="M134.195 109.669H129.29V114.574H134.195V109.669Z" fill="black"/>
<path d="M144.006 109.669H139.1V114.574H144.006V109.669Z" fill="black"/>
<path d="M153.816 109.669H148.911V114.574H153.816V109.669Z" fill="black"/>
<path d="M168.532 109.669H163.627V114.574H168.532V109.669Z" fill="black"/>
<path d="M21.3731 114.574H16.4678V119.479H21.3731V114.574Z" fill="black"/>
<path d="M26.2784 114.574H21.3731V119.479H26.2784V114.574Z" fill="black"/>
<path d="M31.1837 114.574H26.2784V119.479H31.1837V114.574Z" fill="black"/>
<path d="M40.9943 114.574H36.089V119.479H40.9943V114.574Z" fill="black"/>
<path d="M50.8049 114.574H45.8996V119.479H50.8049V114.574Z" fill="black"/>
<path d="M55.7102 114.574H50.8049V119.479H55.7102V114.574Z" fill="black"/>
<path d="M70.4261 114.574H65.5208V119.479H70.4261V114.574Z" fill="black"/>
<path d="M80.2367 114.574H75.3314V119.479H80.2367V114.574Z" fill="black"/>
<path d="M85.142 114.574H80.2367V119.479H85.142V114.574Z" fill="black"/>
<path d="M90.0474 114.574H85.142V119.479H90.0474V114.574Z" fill="black"/>
<path d="M94.9527 114.574H90.0474V119.479H94.9527V114.574Z" fill="black"/>
<path d="M109.669 114.574H104.763L104.763 119.479H109.669V114.574Z" fill="black"/>
<path d="M114.574 114.574H109.669V119.479H114.574V114.574Z" fill="black"/>
<path d="M124.384 114.574H119.479V119.479H124.384V114.574Z" fill="black"/>
<path d="M129.29 114.574H124.384V119.479H129.29V114.574Z" fill="black"/>
<path d="M134.195 114.574H129.29V119.479H134.195V114.574Z" fill="black"/>
<path d="M148.911 114.574H144.006V119.479H148.911V114.574Z" fill="black"/>
<path d="M163.627 114.574H158.722V119.479H163.627V114.574Z" fill="black"/>
<path d="M168.532 114.574H163.627V119.479H168.532V114.574Z" fill="black"/>
<path d="M173.437 114.574H168.532V119.479H173.437V114.574Z" fill="black"/>
<path d="M16.4678 119.479H11.5625V124.384H16.4678V119.479Z" fill="black"/>
<path d="M21.3731 119.479H16.4678V124.384H21.3731V119.479Z" fill="black"/>
<path d="M26.2784 119.479H21.3731V124.384H26.2784V119.479Z" fill="black"/>
<path d="M36.089 119.479H31.1837V124.384H36.089V119.479Z" fill="black"/>
<path d="M40.9943 119.479H36.089V124.384H40.9943V119.479Z" fill="black"/>
<path d="M45.8996 119.479H40.9943V124.384H45.8996V119.479Z" fill="black"/>
<path d="M55.7102 119.479H50.8049V124.384H55.7102V119.479Z" fill="black"/>
<path d="M70.4261 119.479H65.5208V124.384H70.4261V119.479Z" fill="black"/>
<path d="M75.3314 119.479H70.4261V124.384H75.3314V119.479Z" fill="black"/>
<path d="M85.142 119.479H80.2367V124.384H85.142V119.479Z" fill="black"/>
<path d="M90.0474 119.479H85.142V124.384H90.0474V119.479Z" fill="black"/>
<path d="M94.9527 119.479H90.0474V124.384H94.9527V119.479Z" fill="black"/>
<path d="M109.669 119.479H104.763V124.384H109.669V119.479Z" fill="black"/>
<path d="M119.479 119.479H114.574V124.384H119.479V119.479Z" fill="black"/>
<path d="M124.384 119.479H119.479V124.384H124.384V119.479Z" fill="black"/>
<path d="M134.195 119.479H129.29V124.384H134.195V119.479Z" fill="black"/>
<path d="M139.1 119.479H134.195V124.384H139.1V119.479Z" fill="black"/>
<path d="M144.006 119.479H139.1V124.384H144.006V119.479Z" fill="black"/>
<path d="M148.911 119.479H144.006V124.384H148.911V119.479Z" fill="black"/>
<path d="M168.532 119.479H163.627V124.384H168.532V119.479Z" fill="black"/>
<path d="M173.437 119.479H168.532V124.384H173.437V119.479Z" fill="black"/>
<path d="M16.4678 124.384H11.5625V129.29H16.4678V124.384Z" fill="black"/>
<path d="M36.089 124.384H31.1837V129.29H36.089V124.384Z" fill="black"/>
<path d="M50.8049 124.384H45.8996V129.29H50.8049V124.384Z" fill="black"/>
<path d="M60.6155 124.384H55.7102V129.29H60.6155V124.384Z" fill="black"/>
<path d="M65.5208 124.384H60.6155V129.29H65.5208V124.384Z" fill="black"/>
<path d="M70.4261 124.384H65.5208V129.29H70.4261V124.384Z" fill="black"/>
<path d="M80.2367 124.384H75.3314V129.29H80.2367V124.384Z" fill="black"/>
<path d="M85.142 124.384H80.2367V129.29H85.142V124.384Z" fill="black"/>
<path d="M90.0474 124.384H85.142V129.29H90.0474V124.384Z" fill="black"/>
<path d="M94.9527 124.384H90.0474V129.29H94.9527V124.384Z" fill="black"/>
<path d="M99.858 124.384H94.9527V129.29H99.858V124.384Z" fill="black"/>
<path d="M104.763 124.384H99.858V129.29H104.763L104.763 124.384Z" fill="black"/>
<path d="M109.669 124.384H104.763L104.763 129.29H109.669V124.384Z" fill="black"/>
<path d="M119.479 124.384H114.574V129.29H119.479V124.384Z" fill="black"/>
<path d="M124.384 124.384H119.479V129.29H124.384V124.384Z" fill="black"/>
<path d="M129.29 124.384H124.384V129.29H129.29V124.384Z" fill="black"/>
<path d="M134.195 124.384H129.29V129.29H134.195V124.384Z" fill="black"/>
<path d="M163.627 124.384H158.722V129.29H163.627V124.384Z" fill="black"/>
<path d="M168.532 124.384H163.627V129.29H168.532V124.384Z" fill="black"/>
<path d="M173.437 124.384H168.532V129.29H173.437V124.384Z" fill="black"/>
<path d="M21.3731 129.29H16.4678V134.195H21.3731V129.29Z" fill="black"/>
<path d="M26.2784 129.29H21.3731V134.195H26.2784V129.29Z" fill="black"/>
<path d="M45.8996 129.29H40.9943V134.195H45.8996V129.29Z" fill="black"/>
<path d="M50.8049 129.29H45.8996V134.195H50.8049V129.29Z" fill="black"/>
<path d="M55.7102 129.29H50.8049V134.195H55.7102V129.29Z" fill="black"/>
<path d="M60.6155 129.29H55.7102V134.195H60.6155V129.29Z" fill="black"/>
<path d="M70.4261 129.29H65.5208V134.195H70.4261V129.29Z" fill="black"/>
<path d="M80.2367 129.29H75.3314V134.195H80.2367V129.29Z" fill="black"/>
<path d="M104.763 129.29H99.858V134.195H104.763V129.29Z" fill="black"/>
<path d="M114.574 129.29H109.669V134.195H114.574V129.29Z" fill="black"/>
<path d="M124.384 129.29H119.479V134.195H124.384V129.29Z" fill="black"/>
<path d="M134.195 129.29H129.29V134.195H134.195V129.29Z" fill="black"/>
<path d="M139.1 129.29H134.195V134.195H139.1V129.29Z" fill="black"/>
<path d="M144.006 129.29H139.1V134.195H144.006V129.29Z" fill="black"/>
<path d="M148.911 129.29H144.006V134.195H148.911V129.29Z" fill="black"/>
<path d="M153.816 129.29H148.911V134.195H153.816V129.29Z" fill="black"/>
<path d="M158.722 129.29H153.816V134.195H158.722V129.29Z" fill="black"/>
<path d="M163.627 129.29H158.722V134.195H163.627V129.29Z" fill="black"/>
<path d="M168.532 129.29H163.627V134.195H168.532V129.29Z" fill="black"/>
<path d="M173.437 129.29H168.532V134.195H173.437V129.29Z" fill="black"/>
<path d="M55.7102 134.195H50.8049V139.1H55.7102V134.195Z" fill="black"/>
<path d="M60.6155 134.195H55.7102V139.1H60.6155V134.195Z" fill="black"/>
<path d="M75.3314 134.195H70.4261V139.1H75.3314V134.195Z" fill="black"/>
<path d="M85.142 134.195H80.2367V139.1H85.142V134.195Z" fill="black"/>
<path d="M90.0474 134.195H85.142V139.1H90.0474V134.195Z" fill="black"/>
<path d="M99.858 134.195H94.9527V139.1H99.858V134.195Z" fill="black"/>
<path d="M119.479 134.195H114.574V139.1H119.479V134.195Z" fill="black"/>
<path d="M129.29 134.195H124.384V139.1H129.29V134.195Z" fill="black"/>
<path d="M134.195 134.195H129.29V139.1H134.195V134.195Z" fill="black"/>
<path d="M153.816 134.195H148.911V139.1H153.816V134.195Z" fill="black"/>
<path d="M168.532 134.195H163.627V139.1H168.532V134.195Z" fill="black"/>
<path d="M16.4678 139.1H11.5625V144.006H16.4678V139.1Z" fill="black"/>
<path d="M21.3731 139.1H16.4678V144.006H21.3731V139.1Z" fill="black"/>
<path d="M26.2784 139.1H21.3731V144.006H26.2784V139.1Z" fill="black"/>
<path d="M31.1837 139.1H26.2784V144.006H31.1837V139.1Z" fill="black"/>
<path d="M36.089 139.1H31.1837V144.006H36.089V139.1Z" fill="black"/>
<path d="M40.9943 139.1H36.089V144.006H40.9943V139.1Z" fill="black"/>
<path d="M45.8996 139.1H40.9943V144.006H45.8996V139.1Z" fill="black"/>
<path d="M55.7102 139.1H50.8049V144.006H55.7102V139.1Z" fill="black"/>
<path d="M75.3314 139.1H70.4261V144.006H75.3314V139.1Z" fill="black"/>
<path d="M85.142 139.1H80.2367V144.006H85.142V139.1Z" fill="black"/>
<path d="M90.0474 139.1H85.142V144.006H90.0474V139.1Z" fill="black"/>
<path d="M94.9527 139.1H90.0474V144.006H94.9527V139.1Z" fill="black"/>
<path d="M109.669 139.1H104.763V144.006H109.669V139.1Z" fill="black"/>
<path d="M114.574 139.1H109.669V144.006H114.574V139.1Z" fill="black"/>
<path d="M119.479 139.1H114.574V144.006H119.479V139.1Z" fill="black"/>
<path d="M129.29 139.1H124.384V144.006H129.29V139.1Z" fill="black"/>
<path d="M134.195 139.1H129.29V144.006H134.195V139.1Z" fill="black"/>
<path d="M144.006 139.1H139.1V144.006H144.006V139.1Z" fill="black"/>
<path d="M153.816 139.1H148.911V144.006H153.816V139.1Z" fill="black"/>
<path d="M158.722 139.1H153.816V144.006H158.722V139.1Z" fill="black"/>
<path d="M163.627 139.1H158.722V144.006H163.627V139.1Z" fill="black"/>
<path d="M168.532 139.1H163.627V144.006H168.532V139.1Z" fill="black"/>
<path d="M173.437 139.1H168.532V144.006H173.437V139.1Z" fill="black"/>
<path d="M16.4678 144.006H11.5625V148.911H16.4678V144.006Z" fill="black"/>
<path d="M45.8996 144.006H40.9943V148.911H45.8996V144.006Z" fill="black"/>
<path d="M55.7102 144.006H50.8049V148.911H55.7102V144.006Z" fill="black"/>
<path d="M75.3314 144.006H70.4261V148.911H75.3314V144.006Z" fill="black"/>
<path d="M80.2367 144.006H75.3314V148.911H80.2367V144.006Z" fill="black"/>
<path d="M104.763 144.006H99.858V148.911H104.763L104.763 144.006Z" fill="black"/>
<path d="M109.669 144.006H104.763L104.763 148.911H109.669V144.006Z" fill="black"/>
<path d="M114.574 144.006H109.669V148.911H114.574V144.006Z" fill="black"/>
<path d="M124.384 144.006H119.479V148.911H124.384V144.006Z" fill="black"/>
<path d="M129.29 144.006H124.384V148.911H129.29V144.006Z" fill="black"/>
<path d="M134.195 144.006H129.29V148.911H134.195V144.006Z" fill="black"/>
<path d="M153.816 144.006H148.911V148.911H153.816V144.006Z" fill="black"/>
<path d="M158.722 144.006H153.816V148.911H158.722V144.006Z" fill="black"/>
<path d="M163.627 144.006H158.722V148.911H163.627V144.006Z" fill="black"/>
<path d="M16.4678 148.911H11.5625V153.816H16.4678V148.911Z" fill="black"/>
<path d="M26.2784 148.911H21.3731V153.816H26.2784V148.911Z" fill="black"/>
<path d="M31.1837 148.911H26.2784V153.816H31.1837V148.911Z" fill="black"/>
<path d="M36.089 148.911H31.1837V153.816H36.089V148.911Z" fill="black"/>
<path d="M45.8996 148.911H40.9943V153.816H45.8996V148.911Z" fill="black"/>
<path d="M55.7102 148.911H50.8049V153.816H55.7102V148.911Z" fill="black"/>
<path d="M75.3314 148.911H70.4261V153.816H75.3314V148.911Z" fill="black"/>
<path d="M85.142 148.911H80.2367V153.816H85.142V148.911Z" fill="black"/>
<path d="M90.0474 148.911H85.142V153.816H90.0474V148.911Z" fill="black"/>
<path d="M94.9527 148.911H90.0474V153.816H94.9527V148.911Z" fill="black"/>
<path d="M114.574 148.911H109.669V153.816H114.574V148.911Z" fill="black"/>
<path d="M129.29 148.911H124.384V153.816H129.29V148.911Z" fill="black"/>
<path d="M134.195 148.911H129.29V153.816H134.195V148.911Z" fill="black"/>
<path d="M139.1 148.911H134.195V153.816H139.1V148.911Z" fill="black"/>
<path d="M144.006 148.911H139.1V153.816H144.006V148.911Z" fill="black"/>
<path d="M148.911 148.911H144.006V153.816H148.911V148.911Z" fill="black"/>
<path d="M153.816 148.911H148.911V153.816H153.816V148.911Z" fill="black"/>
<path d="M158.722 148.911H153.816V153.816H158.722V148.911Z" fill="black"/>
<path d="M163.627 148.911H158.722V153.816H163.627V148.911Z" fill="black"/>
<path d="M16.4678 153.816H11.5625V158.722H16.4678V153.816Z" fill="black"/>
<path d="M26.2784 153.816H21.3731V158.722H26.2784V153.816Z" fill="black"/>
<path d="M31.1837 153.816H26.2784V158.722H31.1837V153.816Z" fill="black"/>
<path d="M36.089 153.816H31.1837V158.722H36.089V153.816Z" fill="black"/>
<path d="M45.8996 153.816H40.9943V158.722H45.8996V153.816Z" fill="black"/>
<path d="M55.7102 153.816H50.8049V158.722H55.7102V153.816Z" fill="black"/>
<path d="M60.6155 153.816H55.7102V158.722H60.6155V153.816Z" fill="black"/>
<path d="M65.5208 153.816H60.6155V158.722H65.5208V153.816Z" fill="black"/>
<path d="M75.3314 153.816H70.4261V158.722H75.3314V153.816Z" fill="black"/>
<path d="M80.2367 153.816H75.3314V158.722H80.2367V153.816Z" fill="black"/>
<path d="M85.142 153.816H80.2367V158.722H85.142V153.816Z" fill="black"/>
<path d="M99.858 153.816H94.9527V158.722H99.858V153.816Z" fill="black"/>
<path d="M104.763 153.816H99.858V158.722H104.763V153.816Z" fill="black"/>
<path d="M114.574 153.816H109.669V158.722H114.574V153.816Z" fill="black"/>
<path d="M134.195 153.816H129.29V158.722H134.195V153.816Z" fill="black"/>
<path d="M144.006 153.816H139.1V158.722H144.006V153.816Z" fill="black"/>
<path d="M153.816 153.816H148.911V158.722H153.816V153.816Z" fill="black"/>
<path d="M16.4678 158.722H11.5625V163.627H16.4678V158.722Z" fill="black"/>
<path d="M26.2784 158.722H21.3731V163.627H26.2784V158.722Z" fill="black"/>
<path d="M31.1837 158.722H26.2784V163.627H31.1837V158.722Z" fill="black"/>
<path d="M36.089 158.722H31.1837V163.627H36.089V158.722Z" fill="black"/>
<path d="M45.8996 158.722H40.9943V163.627H45.8996V158.722Z" fill="black"/>
<path d="M60.6155 158.722H55.7102V163.627H60.6155V158.722Z" fill="black"/>
<path d="M80.2367 158.722H75.3314V163.627H80.2367V158.722Z" fill="black"/>
<path d="M85.142 158.722H80.2367V163.627H85.142V158.722Z" fill="black"/>
<path d="M99.858 158.722H94.9527V163.627H99.858V158.722Z" fill="black"/>
<path d="M119.479 158.722H114.574V163.627H119.479V158.722Z" fill="black"/>
<path d="M124.384 158.722H119.479V163.627H124.384V158.722Z" fill="black"/>
<path d="M134.195 158.722H129.29V163.627H134.195V158.722Z" fill="black"/>
<path d="M139.1 158.722H134.195V163.627H139.1V158.722Z" fill="black"/>
<path d="M158.722 158.722H153.816V163.627H158.722V158.722Z" fill="black"/>
<path d="M16.4678 163.627H11.5625V168.532H16.4678V163.627Z" fill="black"/>
<path d="M45.8996 163.627H40.9943V168.532H45.8996V163.627Z" fill="black"/>
<path d="M65.5208 163.627H60.6155V168.532H65.5208V163.627Z" fill="black"/>
<path d="M75.3314 163.627H70.4261V168.532H75.3314V163.627Z" fill="black"/>
<path d="M85.142 163.627H80.2367V168.532H85.142V163.627Z" fill="black"/>
<path d="M94.9527 163.627H90.0474V168.532H94.9527V163.627Z" fill="black"/>
<path d="M99.858 163.627H94.9527V168.532H99.858V163.627Z" fill="black"/>
<path d="M104.763 163.627H99.858V168.532H104.763V163.627Z" fill="black"/>
<path d="M109.669 163.627H104.763V168.532H109.669V163.627Z" fill="black"/>
<path d="M114.574 163.627H109.669V168.532H114.574V163.627Z" fill="black"/>
<path d="M119.479 163.627H114.574V168.532H119.479V163.627Z" fill="black"/>
<path d="M124.384 163.627H119.479V168.532H124.384V163.627Z" fill="black"/>
<path d="M134.195 163.627H129.29V168.532H134.195V163.627Z" fill="black"/>
<path d="M144.006 163.627H139.1V168.532H144.006V163.627Z" fill="black"/>
<path d="M148.911 163.627H144.006V168.532H148.911V163.627Z" fill="black"/>
<path d="M16.4678 168.532H11.5625V173.437H16.4678V168.532Z" fill="black"/>
<path d="M21.3731 168.532H16.4678V173.437H21.3731V168.532Z" fill="black"/>
<path d="M26.2784 168.532H21.3731V173.437H26.2784V168.532Z" fill="black"/>
<path d="M31.1837 168.532H26.2784V173.437H31.1837V168.532Z" fill="black"/>
<path d="M36.089 168.532H31.1837V173.437H36.089V168.532Z" fill="black"/>
<path d="M40.9943 168.532H36.089V173.437H40.9943V168.532Z" fill="black"/>
<path d="M45.8996 168.532H40.9943V173.437H45.8996V168.532Z" fill="black"/>
<path d="M55.7102 168.532H50.8049V173.437H55.7102V168.532Z" fill="black"/>
<path d="M70.4261 168.532H65.5208V173.437H70.4261V168.532Z" fill="black"/>
<path d="M75.3314 168.532H70.4261V173.437H75.3314V168.532Z" fill="black"/>
<path d="M99.858 168.532H94.9527V173.437H99.858V168.532Z" fill="black"/>
<path d="M114.574 168.532H109.669V173.437H114.574V168.532Z" fill="black"/>
<path d="M134.195 168.532H129.29V173.437H134.195V168.532Z" fill="black"/>
<path d="M153.816 168.532H148.911V173.437H153.816V168.532Z" fill="black"/>
<path d="M173.437 168.532H168.532V173.437H173.437V168.532Z" fill="black"/>
</g>
<defs>
<clipPath id="clip0_115_1140">
<rect width="185" height="185" fill="white"/>
</clipPath>
</defs>
</svg>
